<svg width="207" height="46" viewBox="0 0 207 46" fill="none" xmlns="http://www.w3.org/2000/svg">
<path d="M26.048 14.432C26.688 13.152 27.008 11.9147 27.008 10.72C27.008 9.52533 26.944 8.608 26.816 7.968C26.688 7.28533 26.4747 6.688 26.176 6.176C25.536 5.06666 24.576 4.512 23.296 4.512C21.7173 4.512 20.288 5.088 19.008 6.24C17.6427 7.43466 16.96 8.97066 16.96 10.848C16.96 12.0427 17.3653 13.1093 18.176 14.048C19.0293 14.944 20.096 15.8187 21.376 16.672C22.656 17.5253 24.0213 18.3787 25.472 19.232C26.9227 20.0853 28.288 21.024 29.568 22.048C32.512 24.3947 33.984 27.1467 33.984 30.304C33.984 32.4373 33.408 34.4213 32.256 36.256C31.1467 38.048 29.6533 39.6053 27.776 40.928C23.68 43.8293 18.9227 45.28 13.504 45.28C9.10933 45.28 5.78133 44.576 3.52 43.168C1.25867 41.7173 0.128 39.904 0.128 37.728C0.128 33.8453 1.64267 31.4133 4.672 30.432C5.52533 30.1333 6.592 29.984 7.872 29.984C9.19467 29.984 10.6027 30.2613 12.096 30.816C11.4133 32.5653 11.072 34.2293 11.072 35.808C11.072 39.2213 12.288 40.928 14.72 40.928C16.2987 40.928 17.728 40.352 19.008 39.2C20.3307 38.048 20.992 36.832 20.992 35.552C20.992 34.2293 20.5653 33.0987 19.712 32.16C18.9013 31.2213 17.8773 30.3893 16.64 29.664C15.4027 28.896 14.0587 28.1493 12.608 27.424C11.2 26.6987 9.87733 25.824 8.64 24.8C5.73867 22.4533 4.288 19.4027 4.288 15.648C4.288 13.216 4.88533 11.0613 6.08 9.184C7.27467 7.264 8.832 5.664 10.752 4.384C14.592 1.78133 18.8587 0.48 23.552 0.48C28.288 0.48 31.7867 1.184 34.048 2.592C36.352 4 37.504 5.89867 37.504 8.288C37.504 10.3787 36.6933 12.0853 35.072 13.408C33.664 14.5173 32.1067 15.072 30.4 15.072C28.6933 15.072 27.2427 14.8587 26.048 14.432Z" fill="#FBA9D5"/>
<path d="M38.875 38.75C38.875 38.5833 38.875 38.25 38.875 37.75C38.9167 37.2083 38.9375 36.8542 38.9375 36.6875C40.2708 33.6458 41.9792 30.8333 44.0625 28.25C46.1458 25.6667 48.5 23.375 51.125 21.375C51.2083 21.375 51.3333 21.3542 51.5 21.3125C51.7083 21.2292 51.8542 21.1875 51.9375 21.1875C53.0625 21.1875 53.9792 21.4375 54.6875 21.9375C55.4375 22.3958 56.0208 23.0208 56.4375 23.8125C56.8958 24.5625 57.2083 25.4167 57.375 26.375C57.5417 27.2917 57.625 28.1875 57.625 29.0625C57.625 30.6875 57.25 32.3958 56.5 34.1875C55.75 35.9375 54.7292 37.5625 53.4375 39.0625C52.1875 40.5208 50.75 41.7292 49.125 42.6875C47.5 43.6042 45.8125 44.0625 44.0625 44.0625C42.3125 44.0625 41 43.6042 40.125 42.6875C39.2917 41.7292 38.875 40.4167 38.875 38.75ZM43.75 38C43.75 38.4583 43.9375 38.7708 44.3125 38.9375C44.6875 39.1042 45.0625 39.1875 45.4375 39.1875C46.4792 39.1875 47.4792 38.9167 48.4375 38.375C49.4375 37.7917 50.3125 37.0833 51.0625 36.25C51.8542 35.375 52.4792 34.4167 52.9375 33.375C53.3958 32.3333 53.625 31.3333 53.625 30.375C53.625 29.9167 53.5833 29.4167 53.5 28.875C53.4583 28.2917 53.3333 27.7917 53.125 27.375C52.9167 26.9167 52.5833 26.5625 52.125 26.3125C51.7083 26.0625 51.1042 26.0208 50.3125 26.1875C49.7292 26.3125 49.0625 26.8542 48.3125 27.8125C47.5625 28.7708 46.8333 29.8958 46.125 31.1875C45.4583 32.4375 44.8958 33.7083 44.4375 35C43.9792 36.25 43.75 37.25 43.75 38ZM60.3125 40.875C60.3125 40.25 60.5 39.375 60.875 38.25C61.25 37.0833 61.7292 35.8333 62.3125 34.5C62.9375 33.1667 63.625 31.8125 64.375 30.4375C65.1667 29.0625 65.9583 27.8125 66.75 26.6875C67.5417 25.5625 68.2917 24.6458 69 23.9375C69.7083 23.2292 70.3333 22.875 70.875 22.875C72.0417 22.875 72.625 23.4375 72.625 24.5625C72.625 25.0625 72.5208 25.4792 72.3125 25.8125C72.1458 26.1458 71.9375 26.4583 71.6875 26.75C71.4375 27.0417 71.1667 27.3333 70.875 27.625C70.5833 27.875 70.3333 28.1875 70.125 28.5625C69.75 29.1875 69.2917 30.0417 68.75 31.125C68.2083 32.2083 67.6667 33.2708 67.125 34.3125C66.625 35.3125 66.1875 36.2083 65.8125 37C65.4375 37.7917 65.25 38.2292 65.25 38.3125V39.125C66.875 38.8333 68.4375 38.1458 69.9375 37.0625C71.4375 35.9375 72.8542 34.625 74.1875 33.125C75.5625 31.625 76.8542 30.0625 78.0625 28.4375C79.3125 26.7708 80.4792 25.25 81.5625 23.875C82.6458 22.4583 83.6667 21.2917 84.625 20.375C85.5833 19.4583 86.4792 19 87.3125 19C87.3125 20.5417 87 21.9375 86.375 23.1875C85.75 24.4375 85.0625 25.6667 84.3125 26.875C83.6042 28.0833 82.9375 29.3333 82.3125 30.625C81.6875 31.875 81.375 33.2917 81.375 34.875C81.375 35.5417 81.7708 36.1458 82.5625 36.6875C83.3958 37.1875 84.3333 37.625 85.375 38C86.4583 38.3333 87.5 38.6042 88.5 38.8125C89.5 39.0208 90.1875 39.1458 90.5625 39.1875V40.8125C89.6042 40.8542 88.4167 40.875 87 40.875C85.5833 40.8333 84.1667 40.6667 82.75 40.375C81.3333 40.0833 80.0417 39.6042 78.875 38.9375C77.75 38.2292 77 37.2083 76.625 35.875C75.5417 36.5833 74.5 37.4167 73.5 38.375C72.5 39.3333 71.4583 40.2292 70.375 41.0625C69.3333 41.8958 68.2292 42.6042 67.0625 43.1875C65.8958 43.7708 64.625 44.0625 63.25 44.0625C62.4167 44.0625 61.7083 43.7083 61.125 43C60.5833 42.2917 60.3125 41.5833 60.3125 40.875ZM111.688 44.0625C110.646 44.2292 109.688 44.0625 108.812 43.5625C107.979 43.0208 107.312 42.3333 106.812 41.5C106.312 40.625 106.021 39.6875 105.938 38.6875C105.854 37.6458 106.062 36.7083 106.562 35.875C108.396 33.5 109.646 31.625 110.312 30.25C110.979 28.8333 111.208 27.8542 111 27.3125C110.833 26.7292 110.312 26.5 109.438 26.625C108.604 26.7083 107.583 27.0833 106.375 27.75C105.167 28.375 103.854 29.2083 102.438 30.25C101.062 31.2917 99.7708 32.4375 98.5625 33.6875C97.3542 34.9375 96.2917 36.25 95.375 37.625C94.5 38.9583 93.9375 40.2708 93.6875 41.5625C93.2708 41.8125 92.9167 42.0208 92.625 42.1875C92.3333 42.3125 92 42.375 91.625 42.375C91 42.375 90.625 42.1667 90.5 41.75C90.375 41.3333 90.3125 40.8958 90.3125 40.4375C90.3125 39.3958 90.625 38.3333 91.25 37.25C91.9167 36.125 92.6667 35.0833 93.5 34.125C94.375 33.125 95.2083 32.2292 96 31.4375C96.7917 30.6042 97.3542 29.9375 97.6875 29.4375C98.7292 27.7292 99.7708 25.8958 100.812 23.9375C101.854 21.9375 102.896 19.9167 103.938 17.875C104.979 15.7917 106.042 13.75 107.125 11.75C108.25 9.70833 109.417 7.77083 110.625 5.9375C110.833 5.60417 111 5.375 111.125 5.25C111.292 5.125 111.521 5.0625 111.812 5.0625C112.146 5.0625 112.396 5.125 112.562 5.25C112.729 5.375 112.896 5.60417 113.062 5.9375C113.062 6.10417 113.021 6.375 112.938 6.75C112.896 7.125 112.833 7.54167 112.75 8C112.708 8.41667 112.625 8.8125 112.5 9.1875C112.417 9.5625 112.354 9.8125 112.312 9.9375C112.062 10.4375 111.646 11.3125 111.062 12.5625C110.479 13.8125 109.833 15.1458 109.125 16.5625C108.458 17.9792 107.812 19.375 107.188 20.75C106.562 22.0833 106.104 23.0833 105.812 23.75C106.438 23.3333 107 23.0208 107.5 22.8125C108 22.5625 108.479 22.3958 108.938 22.3125C109.438 22.1875 109.938 22.125 110.438 22.125C110.979 22.0833 111.562 22.0625 112.188 22.0625C113.688 22.4375 114.667 23 115.125 23.75C115.625 24.5 115.771 25.375 115.562 26.375C115.396 27.3333 115 28.3958 114.375 29.5625C113.75 30.7292 113.083 31.9167 112.375 33.125C111.708 34.2917 111.104 35.4375 110.562 36.5625C110.021 37.6458 109.771 38.6458 109.812 39.5625C109.812 39.9375 109.896 40.2083 110.062 40.375C110.229 40.5417 110.438 40.6667 110.688 40.75C110.938 40.8333 111.208 40.875 111.5 40.875C111.792 40.875 112.062 40.875 112.312 40.875C113.188 40.875 114.021 40.75 114.812 40.5C115.646 40.2083 116.458 39.8958 117.25 39.5625C118.042 39.2292 118.833 38.9375 119.625 38.6875C120.458 38.3958 121.312 38.25 122.188 38.25C122.188 39.0417 121.792 39.7917 121 40.5C120.208 41.2083 119.25 41.8333 118.125 42.375C117.042 42.875 115.896 43.2917 114.688 43.625C113.479 43.9167 112.479 44.0625 111.688 44.0625ZM120.25 39.9375C120.625 37.5625 121.333 35.375 122.375 33.375C123.417 31.375 124.604 29.6458 125.938 28.1875C127.312 26.6875 128.792 25.4583 130.375 24.5C131.958 23.5417 133.5 22.9375 135 22.6875C136.5 22.3958 137.875 22.4583 139.125 22.875C140.417 23.2917 141.458 24.125 142.25 25.375C142.25 26.3333 142.021 27.25 141.562 28.125C141.146 29 140.667 29.875 140.125 30.75C139.625 31.625 139.146 32.5208 138.688 33.4375C138.271 34.3542 138.062 35.3333 138.062 36.375C138.062 37.4583 138.292 38.3333 138.75 39C139.25 39.625 140.104 39.9375 141.312 39.9375C142.312 39.9375 143.271 39.7917 144.188 39.5C145.146 39.2083 146.104 39.0625 147.062 39.0625C147.229 39.0625 147.5 39.0833 147.875 39.125C148.292 39.125 148.562 39.125 148.688 39.125C148.188 39.8333 147.542 40.4375 146.75 40.9375C145.958 41.4375 145.125 41.875 144.25 42.25C143.375 42.5833 142.458 42.8333 141.5 43C140.583 43.1667 139.729 43.25 138.938 43.25C138.188 43.25 137.521 43.0833 136.938 42.75C136.354 42.4167 135.854 41.9792 135.438 41.4375C135.021 40.8958 134.688 40.2917 134.438 39.625C134.229 38.9167 134.125 38.2292 134.125 37.5625C133.5 38.2708 132.812 39.0208 132.062 39.8125C131.354 40.5625 130.583 41.25 129.75 41.875C128.958 42.5 128.083 43.0208 127.125 43.4375C126.208 43.8542 125.25 44.0625 124.25 44.0625C123.167 44.0625 122.229 43.6667 121.438 42.875C120.646 42.0417 120.25 41.0625 120.25 39.9375ZM124.375 38C124.375 38.3333 124.375 38.7083 124.375 39.125C124.417 39.5417 124.688 39.8125 125.188 39.9375C126.229 39.6875 127.417 39.1458 128.75 38.3125C130.083 37.4375 131.333 36.4375 132.5 35.3125C133.667 34.1458 134.646 32.9167 135.438 31.625C136.229 30.2917 136.625 29.0208 136.625 27.8125C136.625 27.7292 136.604 27.6042 136.562 27.4375C136.562 27.2292 136.562 27.0833 136.562 27C135.146 27 133.708 27.2917 132.25 27.875C130.792 28.4583 129.479 29.2708 128.312 30.3125C127.146 31.3125 126.188 32.4792 125.438 33.8125C124.729 35.1458 124.375 36.5417 124.375 38ZM146.438 39.9375C146.438 39.3542 146.5 38.8542 146.625 38.4375C146.75 37.9792 146.979 37.3958 147.312 36.6875C147.604 36.2708 148.125 35.4792 148.875 34.3125C149.667 33.1458 150.479 31.9167 151.312 30.625C152.188 29.3333 153 28.125 153.75 27C154.542 25.8333 155.083 25.0208 155.375 24.5625C155.75 24.0208 156.042 23.7292 156.25 23.6875C156.458 23.6458 156.854 23.625 157.438 23.625C157.812 23.625 158.208 23.6458 158.625 23.6875C159.083 23.7292 159.375 24.0208 159.5 24.5625C158.917 25.9792 158.125 27.3333 157.125 28.625C156.167 29.875 155.208 31.125 154.25 32.375C153.333 33.625 152.521 34.9167 151.812 36.25C151.104 37.5417 150.75 38.9375 150.75 40.4375C150.917 40.4375 151.167 40.4583 151.5 40.5C151.875 40.5417 152.271 40.5833 152.688 40.625C153.104 40.6667 153.479 40.7083 153.812 40.75C154.188 40.7917 154.458 40.7917 154.625 40.75C154.875 40.7083 155.292 40.625 155.875 40.5C156.5 40.3333 157.146 40.1667 157.812 40C158.521 39.8333 159.188 39.6667 159.812 39.5C160.438 39.3333 160.875 39.2083 161.125 39.125C161.125 39.2083 161.125 39.3542 161.125 39.5625C161.167 39.7292 161.188 39.8542 161.188 39.9375C161.188 40.7708 160.792 41.4583 160 42C159.25 42.5417 158.354 42.9792 157.312 43.3125C156.312 43.6042 155.271 43.8125 154.188 43.9375C153.146 44.0208 152.333 44.0625 151.75 44.0625C151.125 44.0625 150.479 44 149.812 43.875C149.188 43.7083 148.625 43.4583 148.125 43.125C147.625 42.7917 147.208 42.375 146.875 41.875C146.583 41.3333 146.438 40.6875 146.438 39.9375ZM164.625 3.3125C165.167 3.3125 165.667 3.33333 166.125 3.375C166.583 3.41667 166.979 3.52083 167.312 3.6875C167.646 3.85417 167.917 4.10417 168.125 4.4375C168.333 4.77083 168.438 5.22917 168.438 5.8125C168.438 6.0625 168.438 6.33333 168.438 6.625C168.438 6.91667 168.396 7.20833 168.312 7.5C168.271 7.75 168.167 7.97917 168 8.1875C167.833 8.35417 167.562 8.4375 167.188 8.4375C166.604 8.4375 166.125 8.22917 165.75 7.8125C165.417 7.39583 165.167 6.91667 165 6.375C164.833 5.79167 164.729 5.20833 164.688 4.625C164.646 4.04167 164.625 3.60417 164.625 3.3125ZM161.312 38.3125C161.312 38.0208 161.333 37.5833 161.375 37C161.458 36.375 161.542 35.7708 161.625 35.1875C161.708 34.6042 161.792 34.0833 161.875 33.625C161.958 33.125 162.042 32.8125 162.125 32.6875L173.5 9.9375C173.667 9.60417 173.979 9.14583 174.438 8.5625C174.938 7.9375 175.458 7.3125 176 6.6875C176.583 6.02083 177.146 5.41667 177.688 4.875C178.271 4.29167 178.75 3.83333 179.125 3.5C179.417 3.58333 179.625 3.72917 179.75 3.9375C179.875 4.14583 179.958 4.39583 180 4.6875C180.042 4.9375 180.042 5.1875 180 5.4375C180 5.6875 180 5.89583 180 6.0625C180 6.27083 180 6.5625 180 6.9375C180 7.3125 179.979 7.5 179.938 7.5C179.521 8.625 178.875 9.95833 178 11.5C177.125 13.0417 176.146 14.6875 175.062 16.4375C173.979 18.1875 172.854 20.0208 171.688 21.9375C170.562 23.8125 169.521 25.6875 168.562 27.5625C167.646 29.3958 166.875 31.1667 166.25 32.875C165.667 34.5833 165.375 36.1458 165.375 37.5625C165.375 38.3125 165.583 38.9167 166 39.375C166.458 39.7917 166.938 40.1667 167.438 40.5C167.938 40.8333 168.396 41.1667 168.812 41.5C169.271 41.8333 169.5 42.2917 169.5 42.875C169.5 43.25 169.333 43.5417 169 43.75C168.667 43.9167 168.271 44 167.812 44C166.062 44 164.542 43.5208 163.25 42.5625C161.958 41.5625 161.312 40.1458 161.312 38.3125ZM178 39.9375C178.375 37.5625 179.083 35.375 180.125 33.375C181.167 31.375 182.354 29.6458 183.688 28.1875C185.062 26.6875 186.542 25.4583 188.125 24.5C189.708 23.5417 191.25 22.9375 192.75 22.6875C194.25 22.3958 195.625 22.4583 196.875 22.875C198.167 23.2917 199.208 24.125 200 25.375C200 26.3333 199.771 27.25 199.312 28.125C198.896 29 198.417 29.875 197.875 30.75C197.375 31.625 196.896 32.5208 196.438 33.4375C196.021 34.3542 195.812 35.3333 195.812 36.375C195.812 37.4583 196.042 38.3333 196.5 39C197 39.625 197.854 39.9375 199.062 39.9375C200.062 39.9375 201.021 39.7917 201.938 39.5C202.896 39.2083 203.854 39.0625 204.812 39.0625C204.979 39.0625 205.25 39.0833 205.625 39.125C206.042 39.125 206.312 39.125 206.438 39.125C205.938 39.8333 205.292 40.4375 204.5 40.9375C203.708 41.4375 202.875 41.875 202 42.25C201.125 42.5833 200.208 42.8333 199.25 43C198.333 43.1667 197.479 43.25 196.688 43.25C195.938 43.25 195.271 43.0833 194.688 42.75C194.104 42.4167 193.604 41.9792 193.188 41.4375C192.771 40.8958 192.438 40.2917 192.188 39.625C191.979 38.9167 191.875 38.2292 191.875 37.5625C191.25 38.2708 190.562 39.0208 189.812 39.8125C189.104 40.5625 188.333 41.25 187.5 41.875C186.708 42.5 185.833 43.0208 184.875 43.4375C183.958 43.8542 183 44.0625 182 44.0625C180.917 44.0625 179.979 43.6667 179.188 42.875C178.396 42.0417 178 41.0625 178 39.9375ZM182.125 38C182.125 38.3333 182.125 38.7083 182.125 39.125C182.167 39.5417 182.438 39.8125 182.938 39.9375C183.979 39.6875 185.167 39.1458 186.5 38.3125C187.833 37.4375 189.083 36.4375 190.25 35.3125C191.417 34.1458 192.396 32.9167 193.188 31.625C193.979 30.2917 194.375 29.0208 194.375 27.8125C194.375 27.7292 194.354 27.6042 194.312 27.4375C194.312 27.2292 194.312 27.0833 194.312 27C192.896 27 191.458 27.2917 190 27.875C188.542 28.4583 187.229 29.2708 186.062 30.3125C184.896 31.3125 183.938 32.4792 183.188 33.8125C182.479 35.1458 182.125 36.5417 182.125 38Z" fill="#2A2A2A"/>
</svg>
